<svg xmlns="http://www.w3.org/2000/svg" xmlns:xlink="http://www.w3.org/1999/xlink" width="18" height="18" viewBox="0 0 18 18">
  <defs>
    <style>
      .cls-1 {
        fill: #ff5252;
        opacity: 0.5;
      }

      .cls-2 {
        clip-path: url(#clip-path);
      }

      .cls-3, .cls-5 {
        fill: none;
      }

      .cls-3 {
        stroke: #fff;
      }

      .cls-4 {
        stroke: none;
      }
    </style>
    <clipPath id="clip-path">
      <rect id="矩形_27851" data-name="矩形 27851" class="cls-1" width="18" height="18" transform="translate(164 192)"/>
    </clipPath>
  </defs>
  <g id="蒙版组_2520" data-name="蒙版组 2520" class="cls-2" transform="translate(-164 -192)">
    <g id="组_27773" data-name="组 27773" transform="translate(0 9)">
      <g id="矩形_27771" data-name="矩形 27771" class="cls-3" transform="translate(170 184)">
        <rect class="cls-4" width="6" height="7" rx="3"/>
        <rect class="cls-5" x="0.5" y="0.5" width="5" height="6" rx="2.5"/>
      </g>
      <g id="矩形_27772" data-name="矩形 27772" class="cls-3" transform="translate(181 193) rotate(90)">
        <path class="cls-4" d="M4,0H4A3,3,0,0,1,7,3V13a3,3,0,0,1-3,3H4a4,4,0,0,1-4-4V4A4,4,0,0,1,4,0Z"/>
        <path class="cls-5" d="M4,.5H4A2.5,2.5,0,0,1,6.5,3V13A2.5,2.5,0,0,1,4,15.5H4A3.5,3.5,0,0,1,.5,12V4A3.5,3.5,0,0,1,4,.5Z"/>
      </g>
    </g>
  </g>
</svg>
