<svg xmlns="http://www.w3.org/2000/svg" width="18" height="14" viewBox="0 0 18 14">
  <defs>
    <style>
      .cls-1 {
        fill: #21234a;
        opacity: 0.6;
      }

      .cls-2 {
        fill: none;
        stroke-linejoin: round;
      }

      .cls-3 {
        fill: #797c92;
      }

      .cls-4, .cls-5, .cls-6 {
        stroke: none;
      }

      .cls-5 {
        fill: #21264a;
      }

      .cls-6 {
        fill: #fff;
      }
    </style>
  </defs>
  <g id="组_27807" data-name="组 27807" transform="translate(-303 -213)">
    <g id="减去_4719" data-name="减去 4719" class="cls-1" transform="translate(3296 2342)">
      <path class="cls-4" d="M -2983.99951171875 -2115.5 C -2986.72216796875 -2115.5 -2988.93994140625 -2117.21435546875 -2990.019775390625 -2118.236083984375 C -2990.7470703125 -2118.924560546875 -2991.4033203125 -2119.716064453125 -2991.8671875 -2120.464599609375 C -2992.33349609375 -2121.216552734375 -2992.49951171875 -2121.7509765625 -2992.49951171875 -2122.000244140625 C -2992.49951171875 -2122.540771484375 -2991.796630859375 -2123.98974609375 -2990.294189453125 -2125.496826171875 L -2978.5107421875 -2117.84423828125 C -2979.700439453125 -2116.81982421875 -2981.682861328125 -2115.5 -2983.99951171875 -2115.5 Z M -2976.755859375 -2119.685546875 L -2988.249755859375 -2127.149658203125 C -2986.853759765625 -2128.034912109375 -2985.39697265625 -2128.49951171875 -2983.99951171875 -2128.49951171875 C -2981.31201171875 -2128.49951171875 -2979.076416015625 -2126.7294921875 -2977.98291015625 -2125.67431640625 C -2976.329345703125 -2124.078857421875 -2975.49951171875 -2122.458740234375 -2975.49951171875 -2122.000244140625 C -2975.49951171875 -2121.687744140625 -2975.8916015625 -2120.7919921875 -2976.755859375 -2119.685546875 Z"/>
      <path class="cls-5" d="M -2983.99951171875 -2116 C -2982.143310546875 -2116 -2980.50048828125 -2116.922119140625 -2979.3583984375 -2117.798583984375 L -2990.221435546875 -2124.853271484375 C -2991.54833984375 -2123.436767578125 -2991.99951171875 -2122.2744140625 -2991.99951171875 -2122.000244140625 C -2991.99951171875 -2121.9033203125 -2991.897216796875 -2121.4619140625 -2991.4423828125 -2120.72802734375 C -2991.000244140625 -2120.014892578125 -2990.373046875 -2119.259033203125 -2989.67626953125 -2118.599365234375 C -2988.650390625 -2117.628662109375 -2986.548828125 -2116 -2983.99951171875 -2116 M -2976.8759765625 -2120.35986328125 C -2976.297119140625 -2121.168212890625 -2976.0224609375 -2121.7919921875 -2976.000244140625 -2121.999755859375 C -2976.0390625 -2122.358642578125 -2976.74951171875 -2123.78955078125 -2978.330078125 -2125.314453125 C -2980.751220703125 -2127.650634765625 -2982.92138671875 -2127.99951171875 -2983.99951171875 -2127.99951171875 C -2985.075927734375 -2127.99951171875 -2986.1953125 -2127.700439453125 -2987.294189453125 -2127.125244140625 L -2976.8759765625 -2120.35986328125 M -2983.99951171875 -2115 C -2986.895263671875 -2115 -2989.229736328125 -2116.800048828125 -2990.363525390625 -2117.873046875 C -2991.12109375 -2118.590087890625 -2991.80615234375 -2119.4169921875 -2992.292236328125 -2120.201171875 C -2992.74169921875 -2120.92626953125 -2992.99951171875 -2121.58203125 -2992.99951171875 -2122.000244140625 C -2992.99951171875 -2122.793701171875 -2992.0732421875 -2124.511962890625 -2990.356689453125 -2126.133544921875 L -2977.69384765625 -2117.909912109375 C -2978.83447265625 -2116.822265625 -2981.17041015625 -2115 -2983.99951171875 -2115 Z M -2976.650634765625 -2119.021240234375 L -2976.6513671875 -2119.021728515625 L -2989.151611328125 -2127.13916015625 C -2987.488525390625 -2128.356689453125 -2985.70703125 -2128.99951171875 -2983.99951171875 -2128.99951171875 C -2981.136474609375 -2128.99951171875 -2978.783447265625 -2127.1416015625 -2977.6357421875 -2126.0341796875 C -2976.00732421875 -2124.462890625 -2974.99951171875 -2122.716796875 -2974.99951171875 -2122.000244140625 C -2974.99951171875 -2121.4052734375 -2975.67822265625 -2120.180419921875 -2976.650146484375 -2119.021728515625 L -2976.650634765625 -2119.021240234375 Z"/>
    </g>
    <g id="减去_4705" data-name="减去 4705" class="cls-2" transform="translate(2916 2344)">
      <path class="cls-4" d="M-2604-2128a4,4,0,0,1,4,4,4,4,0,0,1-4,4,4,4,0,0,1-4-4A4,4,0,0,1-2604-2128Z"/>
      <path class="cls-6" d="M -2604.000244140625 -2126.500244140625 C -2605.378662109375 -2126.500244140625 -2606.500244140625 -2125.378662109375 -2606.500244140625 -2124.000244140625 C -2606.500244140625 -2122.621826171875 -2605.378662109375 -2121.500244140625 -2604.000244140625 -2121.500244140625 C -2602.621826171875 -2121.500244140625 -2601.500244140625 -2122.621826171875 -2601.500244140625 -2124.000244140625 C -2601.500244140625 -2125.378662109375 -2602.621826171875 -2126.500244140625 -2604.000244140625 -2126.500244140625 M -2604.000244140625 -2128.000244140625 C -2601.791259765625 -2128.000244140625 -2600.000244140625 -2126.209228515625 -2600.000244140625 -2124.000244140625 C -2600.000244140625 -2121.791259765625 -2601.791259765625 -2120.000244140625 -2604.000244140625 -2120.000244140625 C -2606.209228515625 -2120.000244140625 -2608.000244140625 -2121.791259765625 -2608.000244140625 -2124.000244140625 C -2608.000244140625 -2126.209228515625 -2606.209228515625 -2128.000244140625 -2604.000244140625 -2128.000244140625 Z"/>
    </g>
    <path id="路径_97090" data-name="路径 97090" class="cls-3" d="M.053-.208H20v1.5H.053Z" transform="matrix(-0.839, -0.545, 0.545, -0.839, 320.119, 226.668)"/>
  </g>
</svg>
