<svg xmlns="http://www.w3.org/2000/svg" width="18" height="14" viewBox="0 0 18 14">
  <defs>
    <style>
      .cls-1 {
        fill: #21234a;
        opacity: 0.6;
      }

      .cls-2 {
        fill: none;
        stroke-linejoin: round;
      }

      .cls-3, .cls-4, .cls-5 {
        stroke: none;
      }

      .cls-4 {
        fill: #21264a;
      }

      .cls-5 {
        fill: #fff;
      }
    </style>
  </defs>
  <g id="组_27719" data-name="组 27719" transform="translate(-304 -266)">
    <g id="路径_95957" data-name="路径 95957" class="cls-1" transform="translate(304 266)">
      <path class="cls-3" d="M 9 13.5 C 6.277979850769043 13.5 4.059700012207031 11.78571033477783 2.979680061340332 10.763840675354 C 1.288089990615845 9.163330078125 0.5 7.571730613708496 0.5 7.000000476837158 C 0.5 6.42827033996582 1.288089990615845 4.836670398712158 2.979680061340332 3.236160516738892 C 4.059700012207031 2.214290380477905 6.277979850769043 0.5000004768371582 9 0.5000004768371582 C 11.6879301071167 0.5000004768371582 13.92341995239258 2.270140409469604 15.01673984527588 3.325310468673706 C 16.67017936706543 4.921040534973145 17.5 6.541300296783447 17.5 7.000000476837158 C 17.5 7.458700656890869 16.67017936706543 9.078960418701172 15.01673984527588 10.67469024658203 C 13.92341995239258 11.72986030578613 11.6879301071167 13.5 9 13.5 Z"/>
      <path class="cls-4" d="M 9 1.000000953674316 C 6.451169967651367 1.000000953674316 4.349340438842773 2.628580093383789 3.323320388793945 3.599350929260254 C 1.668529510498047 5.165050506591797 1 6.646140575408936 1 7.000000476837158 C 1 7.353860378265381 1.668529510498047 8.83495044708252 3.323320388793945 10.40065002441406 C 4.349340438842773 11.37141990661621 6.451169967651367 13 9 13 C 11.47453022003174 13 13.56931018829346 11.3607702255249 14.59774017333984 10.38365077972412 C 16.20078086853027 8.86058521270752 16.95733451843262 7.362349987030029 16.99924659729004 7.000000476837158 C 16.95733451843262 6.637650966644287 16.20078086853027 5.139415740966797 14.59774017333984 3.616350173950195 C 13.56931018829346 2.639230728149414 11.47453022003174 1.000000953674316 9 1.000000953674316 M 9 9.5367431640625e-07 C 13.97056007385254 9.5367431640625e-07 18 5.574750900268555 18 7.000000476837158 C 18 8.425251007080078 13.97056007385254 14 9 14 C 4.029439926147461 14 0 8.672100067138672 0 7.000000476837158 C 0 5.327900886535645 4.029439926147461 9.5367431640625e-07 9 9.5367431640625e-07 Z"/>
    </g>
    <g id="减去_4705" data-name="减去 4705" class="cls-2" transform="translate(2917 2397)">
      <path class="cls-3" d="M-2604-2128a4,4,0,0,1,4,4,4,4,0,0,1-4,4,4,4,0,0,1-4-4A4,4,0,0,1-2604-2128Z"/>
      <path class="cls-5" d="M -2604.000244140625 -2126.500244140625 C -2605.378662109375 -2126.500244140625 -2606.500244140625 -2125.378662109375 -2606.500244140625 -2124.000244140625 C -2606.500244140625 -2122.621826171875 -2605.378662109375 -2121.500244140625 -2604.000244140625 -2121.500244140625 C -2602.621826171875 -2121.500244140625 -2601.500244140625 -2122.621826171875 -2601.500244140625 -2124.000244140625 C -2601.500244140625 -2125.378662109375 -2602.621826171875 -2126.500244140625 -2604.000244140625 -2126.500244140625 M -2604.000244140625 -2128.000244140625 C -2601.791259765625 -2128.000244140625 -2600.000244140625 -2126.209228515625 -2600.000244140625 -2124.000244140625 C -2600.000244140625 -2121.791259765625 -2601.791259765625 -2120.000244140625 -2604.000244140625 -2120.000244140625 C -2606.209228515625 -2120.000244140625 -2608.000244140625 -2121.791259765625 -2608.000244140625 -2124.000244140625 C -2608.000244140625 -2126.209228515625 -2606.209228515625 -2128.000244140625 -2604.000244140625 -2128.000244140625 Z"/>
    </g>
  </g>
</svg>
