<svg xmlns="http://www.w3.org/2000/svg" xmlns:xlink="http://www.w3.org/1999/xlink" width="51.159" height="35.452" viewBox="0 0 51.159 35.452">
  <defs>
    <style>
      .cls-1 {
        fill: #fff;
      }

      .cls-2 {
        fill: url(#radial-gradient);
      }

      .cls-3 {
        filter: url(#矩形_19952);
      }
    </style>
    <filter id="矩形_19952" x="0" y="0" width="51.159" height="35.452" filterUnits="userSpaceOnUse">
      <feOffset dy="3" input="SourceAlpha"/>
      <feGaussianBlur stdDeviation="3" result="blur"/>
      <feFlood flood-color="#2861de" flood-opacity="0.494"/>
      <feComposite operator="in" in2="blur"/>
      <feComposite in="SourceGraphic"/>
    </filter>
    <radialGradient id="radial-gradient" cx="0.01" cy="0" r="3.268" gradientTransform="translate(0.007) scale(0.303 0.541)" gradientUnits="objectBoundingBox">
      <stop offset="0" stop-color="#0089ff"/>
      <stop offset="0.465" stop-color="#0a7ff7"/>
      <stop offset="1" stop-color="#2861de"/>
    </radialGradient>
  </defs>
  <g id="组_18303" data-name="组 18303" transform="translate(-21 -169)">
    <g class="cls-3" transform="matrix(1, 0, 0, 1, 21, 169)">
      <rect id="矩形_19952-2" data-name="矩形 19952" class="cls-1" width="33.159" height="17.452" rx="3" transform="translate(9 6)"/>
    </g>
    <path id="路径_21104" data-name="路径 21104" class="cls-2" d="M-13.341-9.38l.083,4.675L-13.3-3.4l.51-1.274,1.922-4.7h1.8L-9.1-4.705l-.028,1.3.515-1.252,2.1-4.725h1.734L-8.81-1.215h-1.628l.028-4.775.044-1.579-.62,1.579-2,4.775H-14.57l-.582-8.165Zm9.169,8.165H-5.866L-4.132-9.38h1.695ZM-.653-8.533A4.19,4.19,0,0,1,2.1-9.542,2.732,2.732,0,0,1,4.825-8.19a2.5,2.5,0,0,1,.238,1.523H3.357a1.831,1.831,0,0,0-.238-.886,1.4,1.4,0,0,0-1.263-.532,2.16,2.16,0,0,0-1.628.751A4.374,4.374,0,0,0-.758-5.21,2.842,2.842,0,0,0-.631-3.152a1.416,1.416,0,0,0,1.3.684,2.049,2.049,0,0,0,1.5-.587A3.332,3.332,0,0,0,2.792-4H4.481A4.828,4.828,0,0,1,2.889-1.831,4.009,4.009,0,0,1,.377-.995a2.84,2.84,0,0,1-2.531-1.13A3.974,3.974,0,0,1-2.5-5.238,5.652,5.652,0,0,1-.653-8.533Zm7.962,0a4.19,4.19,0,0,1,2.753-1.008A2.732,2.732,0,0,1,12.787-8.19a2.5,2.5,0,0,1,.238,1.523H11.319a1.831,1.831,0,0,0-.238-.886,1.4,1.4,0,0,0-1.263-.532,2.16,2.16,0,0,0-1.628.751A4.374,4.374,0,0,0,7.2-5.21a2.842,2.842,0,0,0,.127,2.058,1.416,1.416,0,0,0,1.3.684,2.049,2.049,0,0,0,1.5-.587A3.332,3.332,0,0,0,10.754-4h1.689a4.828,4.828,0,0,1-1.592,2.171,4.009,4.009,0,0,1-2.512.836,2.84,2.84,0,0,1-2.531-1.13,3.974,3.974,0,0,1-.343-3.113A5.652,5.652,0,0,1,7.309-8.533Z" transform="translate(47.637 189.305)"/>
  </g>
</svg>
