<svg xmlns="http://www.w3.org/2000/svg" width="16.032" height="16.7" viewBox="0 0 16.032 16.7">
  <defs>
    <style>
      .cls-1 {
        fill: #3c78ea;
      }

      .cls-2 {
        fill: none;
      }
    </style>
  </defs>
  <g id="组_19373" data-name="组 19373" transform="translate(-0.038 -0.038)">
    <g id="组_19367" data-name="组 19367">
      <path id="路径_28164" data-name="路径 28164" class="cls-1" d="M14.07.038H4.71a2,2,0,0,0-2,2v.219h1V2.038a1,1,0,0,1,1-1h9.36a1,1,0,0,1,1,1V11.4a.992.992,0,0,1-.548.878v1.065A2,2,0,0,0,16.07,11.4V2.038A2,2,0,0,0,14.07.038Z"/>
    </g>
    <g id="矩形_19370" data-name="矩形 19370">
      <g id="组_19368" data-name="组 19368">
        <rect id="矩形_21225" data-name="矩形 21225" class="cls-2" width="13.359" height="13.36" rx="2" transform="translate(0.038 3.378)"/>
      </g>
      <g id="组_19369" data-name="组 19369">
        <path id="路径_28165" data-name="路径 28165" class="cls-1" d="M11.4,16.738H2.038a2,2,0,0,1-2-2V5.378a2,2,0,0,1,2-2H11.4a2,2,0,0,1,2,2v9.36A2,2,0,0,1,11.4,16.738ZM2.038,4.378a1,1,0,0,0-1,1v9.36a1,1,0,0,0,1,1H11.4a1,1,0,0,0,1-1V5.378a1,1,0,0,0-1-1Z"/>
      </g>
    </g>
  </g>
</svg>
