<svg xmlns="http://www.w3.org/2000/svg" width="13.639" height="13.443" viewBox="0 0 13.639 13.443">
  <defs>
    <style>
      .cls-1 {
        fill: #575a5c;
        stroke: #575a5c;
        stroke-width: 0.3px;
      }
    </style>
  </defs>
  <g id="baocun" transform="translate(721.928 -2671.037)">
    <path id="联合_9" data-name="联合 9" class="cls-1" d="M2.838,10.488.1,7.754a.352.352,0,0,1,.5-.5L2.746,9.4V.353a.352.352,0,1,1,.7,0V9.4L5.6,7.255a.352.352,0,0,1,.5.5L3.36,10.488a.352.352,0,0,1-.522,0Z" transform="translate(-718.207 2671.187)"/>
    <g id="组_18695" data-name="组 18695" transform="translate(-721.778 2677.928)">
      <path id="路径_22183" data-name="路径 22183" class="cls-1" d="M-715.131,2687.25h-.343a.352.352,0,0,0-.353.352.353.353,0,0,0,.353.353h.343a.216.216,0,0,1,.216.216v4.561a.216.216,0,0,1-.216.215h-11.5a.216.216,0,0,1-.215-.215v-4.561a.216.216,0,0,1,.215-.216h.407a.352.352,0,0,0,.351-.353.352.352,0,0,0-.351-.352h-.407a.921.921,0,0,0-.92.92v4.561a.922.922,0,0,0,.92.92h11.5a.922.922,0,0,0,.92-.92v-4.561A.921.921,0,0,0-715.131,2687.25Z" transform="translate(727.55 -2687.25)"/>
    </g>
  </g>
</svg>
