<svg xmlns="http://www.w3.org/2000/svg" xmlns:xlink="http://www.w3.org/1999/xlink" width="18" height="18" viewBox="0 0 18 18">
  <defs>
    <style>
      .cls-1 {
        fill: #ff5252;
        opacity: 0.5;
      }

      .cls-2 {
        clip-path: url(#clip-path);
      }

      .cls-3 {
        fill: none;
      }

      .cls-4, .cls-6 {
        fill: #fff;
      }

      .cls-5, .cls-6 {
        stroke: none;
      }
    </style>
    <clipPath id="clip-path">
      <rect id="矩形_27852" data-name="矩形 27852" class="cls-1" width="18" height="18" transform="translate(164 233)"/>
    </clipPath>
  </defs>
  <g id="蒙版组_2521" data-name="蒙版组 2521" class="cls-2" transform="translate(-164 -233)">
    <g id="组_27774" data-name="组 27774">
      <g id="路径_97139" data-name="路径 97139" class="cls-3" transform="translate(166.925 244.305) rotate(-45)">
        <path class="cls-5" d="M2.889-.747h9.852a.6.6,0,0,1,.547.644V2.472a.6.6,0,0,1-.547.644H2.89c-.3,0-1.218-.294-3.285-1.852C1.671-.465,2.587-.747,2.889-.747Z"/>
        <path class="cls-6" d="M 2.922758102416992 0.2529747486114502 C 2.83851146697998 0.2717852592468262 2.370216369628906 0.4057381153106689 1.266605377197266 1.222546458244324 C 2.374550819396973 1.964448571205139 2.84431266784668 2.097153663635254 2.924578666687012 2.115784645080566 L 12.28859901428223 2.115870237350464 L 12.28858470916748 0.2530603408813477 L 2.922758102416992 0.2529747486114502 M 2.889481544494629 -0.7470254898071289 L 12.74126148223877 -0.7469356060028076 C 13.04354190826416 -0.7469356060028076 13.28858184814453 -0.4586856365203857 13.28858184814453 -0.1031255722045898 L 13.28860187530518 2.472074508666992 C 13.28860187530518 2.827634334564209 13.0435619354248 3.115874290466309 12.74128150939941 3.115874290466309 L 2.889501571655273 3.115784406661987 C 2.587231636047363 3.115784406661987 1.67113208770752 2.821404457092285 -0.3956584930419922 1.263294458389282 C 1.671112060546875 -0.4649255275726318 2.587202072143555 -0.7470254898071289 2.889481544494629 -0.7470254898071289 Z"/>
      </g>
      <rect id="矩形_27814" data-name="矩形 27814" class="cls-4" width="16" height="1" rx="0.5" transform="translate(165 248)"/>
    </g>
  </g>
</svg>
