<svg xmlns="http://www.w3.org/2000/svg" width="16" height="15.557" viewBox="0 0 16 15.557">
  <defs>
    <style>
      .cls-1 {
        fill: #fff;
      }
    </style>
  </defs>
  <g id="组_19380" data-name="组 19380" transform="translate(-236.562 -194.735)">
    <path id="路径_28172" data-name="路径 28172" class="cls-1" d="M556.434,119.247a1.1,1.1,0,0,1-.142,0c-.771,0-1.542,0-2.312,0a1.962,1.962,0,0,0-.657.1,1.032,1.032,0,0,0-.7.779,1.824,1.824,0,0,0-.049.432c0,1.363,0,2.724,0,4.087a2.181,2.181,0,0,0,.126.828,1.043,1.043,0,0,0,.757.643,1.588,1.588,0,0,0,.391.045h4.422a2.623,2.623,0,0,0,.5-.047,1.08,1.08,0,0,0,.911-.913c.008-.045-.008-.105.059-.126v-4.706a.04.04,0,0,1-.01-.03c-.03-.1-.034-.2-.067-.3a1.156,1.156,0,0,0-.868-.787,1.362,1.362,0,0,0-.4-.043c-.026,0-.061.02-.079-.018h-1.805C556.513,119.253,556.466,119.243,556.434,119.247Zm2,.826a.816.816,0,0,1,.241.043.3.3,0,0,1,.217.306c0,1.517,0,3.035,0,4.552,0,.227-.174.365-.428.367-.775.006-1.548,0-2.323,0h-2.292a.791.791,0,0,1-.258-.055c-.172-.063-.195-.213-.2-.363,0-.761,0-1.521,0-2.282V120.5a.417.417,0,0,1,.14-.345.475.475,0,0,1,.316-.087Q556.143,120.067,558.436,120.072Z" transform="translate(-307.184 75.542)"/>
    <path id="路径_28173" data-name="路径 28173" class="cls-1" d="M130.768,118.922q-1.2,0-2.4,0a2.49,2.49,0,0,0-.562.063,1.121,1.121,0,0,0-.609.339,1.27,1.27,0,0,0-.3.864q-.006,2.118,0,4.237a2.4,2.4,0,0,0,.057.552,1.147,1.147,0,0,0,.339.619,1.239,1.239,0,0,0,.843.3q2.257,0,4.516,0a2.1,2.1,0,0,0,.562-.061,1.088,1.088,0,0,0,.812-.726c.034-.108.037-.221.077-.327-.065.02-.051.081-.059.126a1.078,1.078,0,0,1-.912.913,2.8,2.8,0,0,1-.5.047H128.2a1.592,1.592,0,0,1-.392-.045,1.047,1.047,0,0,1-.757-.643,2.173,2.173,0,0,1-.126-.828c0-1.363,0-2.724,0-4.087a1.82,1.82,0,0,1,.049-.432,1.032,1.032,0,0,1,.7-.779,2.019,2.019,0,0,1,.658-.1c.772,0,1.543,0,2.315,0a1.109,1.109,0,0,0,.142,0c.035,0,.079,0,.085-.049C130.843,118.947,130.8,118.922,130.768,118.922Zm-12.617,5.888a1.272,1.272,0,0,0,.29.69,1.139,1.139,0,0,0,.873.367q2.287.009,4.577,0a1.891,1.891,0,0,0,.571-.079,1.081,1.081,0,0,0,.794-1.077q0-2.252,0-4.5a1.512,1.512,0,0,0-.049-.381,1.16,1.16,0,0,0-.964-.858,1.731,1.731,0,0,0-.252-.022c-.041,0-.091.012-.106-.049H122.08c-.026.043-.067.018-.1.018-.835,0-1.669,0-2.5,0a1.6,1.6,0,0,0-.857.217,1.1,1.1,0,0,0-.481.669c-.016.055,0,.116-.039.166V124.7C118.159,124.72,118.145,124.772,118.151,124.811Zm.8-4.686a.348.348,0,0,1,.294-.331,1.326,1.326,0,0,1,.268-.02h4.447a.872.872,0,0,1,.252.041.278.278,0,0,1,.219.3v4.574a.309.309,0,0,1-.236.323.753.753,0,0,1-.252.041c-.755,0-1.509,0-2.264,0s-1.529,0-2.294,0a.44.44,0,0,1-.351-.124.3.3,0,0,1-.083-.2Q118.95,122.424,118.953,120.125Z" transform="translate(118.462 75.835)"/>
    <path id="路径_28174" data-name="路径 28174" class="cls-1" d="M118.118,125.054a1.193,1.193,0,0,0,.13.51,1.1,1.1,0,0,0,1.047.634c1.511.012,3.022,0,4.531,0a2.383,2.383,0,0,0,.562-.061,1.093,1.093,0,0,0,.888-1.1c.01-1.5,0-3,0-4.5a1.639,1.639,0,0,0-.018-.3,1.2,1.2,0,0,0-.491-.792,1.325,1.325,0,0,0-.748-.231c-.047,0-.1.024-.14-.018.014.061.067.049.105.049a2.07,2.07,0,0,1,.252.022,1.16,1.16,0,0,1,.964.859,1.515,1.515,0,0,1,.049.382c0,1.5,0,3,0,4.506a1.085,1.085,0,0,1-.793,1.078,1.886,1.886,0,0,1-.57.079q-2.285.006-4.572,0a1.14,1.14,0,0,1-.872-.368,1.281,1.281,0,0,1-.29-.69c-.006-.039.008-.093-.053-.106C118.126,125.013,118.118,125.038,118.118,125.054Zm1.477,9.649a.953.953,0,0,1,.132,0h4.179a1.982,1.982,0,0,0,.5-.063,1.081,1.081,0,0,0,.842-1.08c0-.514,0-1.029,0-1.543v-3.005a1.173,1.173,0,0,0-1.087-1.212c-.231-.024-.465-.035-.7-.041-.7-.014-1.4.01-2.1.026-.669.016-1.339,0-2.006.014a1.444,1.444,0,0,0-.663.164,1.012,1.012,0,0,0-.521.678c-.014.057,0,.132-.075.162v4.751c.041.112.045.231.079.347a1.08,1.08,0,0,0,.807.79,1.353,1.353,0,0,0,.4.043c.028,0,.067-.022.089.018h.041C119.524,134.7,119.562,134.707,119.595,134.7Zm-.231-.824a.379.379,0,0,1-.418-.416c.008-1.488,0-2.977,0-4.467a.346.346,0,0,1,.371-.376c1.513-.049,3.024-.01,4.538-.016a.8.8,0,0,1,.4.061.3.3,0,0,1,.172.278c0,.761,0,1.523,0,2.284s0,1.509,0,2.264c0,.246-.158.357-.379.392a3.147,3.147,0,0,1-.517,0C122.143,133.876,120.753,133.878,119.364,133.878Z" transform="translate(118.462 75.541)"/>
    <path id="路径_28177" data-name="路径 28177" class="cls-1" d="M245.513,243.963a.392.392,0,0,0-.414.406v3.485a.386.386,0,0,0,.422.4.382.382,0,0,0,.428-.4c0-1.164,0-2.331,0-3.495A.39.39,0,0,0,245.513,243.963Zm5.132,0a.4.4,0,0,0-.473.369c0,.592,0,1.183,0,1.775v1.765a.325.325,0,0,0,.008.1.44.44,0,0,0,.477.284c.231-.055.363-.146.365-.434,0-1.126,0-2.252,0-3.377C251.022,244.155,250.931,244.02,250.645,243.967Zm-1.88,1.215a.426.426,0,0,0-.448-.306c-.252.049-.394.134-.4.424-.006.834,0,1.669,0,2.5a.391.391,0,0,0,.355.45.4.4,0,0,0,.5-.387v-2.6A.431.431,0,0,0,248.765,245.182Zm-.562-3.7a.388.388,0,0,0-.284.4v1.793c0,.266.081.426.367.481a.406.406,0,0,0,.485-.375c0-.32,0-.641,0-.964s0-.621,0-.933C248.777,241.5,248.475,241.421,248.2,241.48Zm-2.414.053a.5.5,0,0,0-.312-.067.366.366,0,0,0-.375.371v.527c0,.183,0,.365,0,.548a.341.341,0,0,0,.1.25.466.466,0,0,0,.369.132.4.4,0,0,0,.381-.379c0-.359,0-.716,0-1.075A.353.353,0,0,0,245.789,241.533Zm5.2.172a.41.41,0,0,0-.363-.243.4.4,0,0,0-.456.462c.01.142,0,.284,0,.426v.507a.326.326,0,0,0,.008.089.421.421,0,0,0,.485.284.38.38,0,0,0,.357-.4c.006-.32,0-.643,0-.963A.473.473,0,0,0,250.988,241.705Zm-10.676-6.047a.373.373,0,0,0-.312-.278.547.547,0,0,0-.081-.008c-.012,0-.03,0-.035-.016H239.3c-.008.014-.022.006-.032.006-.27,0-.54,0-.809,0a.517.517,0,0,0-.278.071.355.355,0,0,0-.156.217c0,.018,0,.039-.012.053v1.531c.02,0,.014.022.016.034a.423.423,0,0,0,.093.223.374.374,0,0,0,.282.12c.493,0,.988,0,1.481,0a.573.573,0,0,0,.185-.026.353.353,0,0,0,.258-.349V235.78A.417.417,0,0,0,240.312,235.658Zm8.793-.156a.373.373,0,0,0-.312-.278.549.549,0,0,0-.081-.008c-.012,0-.03,0-.034-.016h-.584c-.008.014-.022.006-.032.006-.27,0-.54,0-.809,0a.517.517,0,0,0-.278.071.355.355,0,0,0-.156.217c0,.018,0,.039-.012.053v1.531c.02,0,.014.022.016.034a.423.423,0,0,0,.093.223.374.374,0,0,0,.282.12c.493,0,.988,0,1.481,0a.572.572,0,0,0,.185-.026.353.353,0,0,0,.258-.349v-1.458A.352.352,0,0,0,249.106,235.5Zm-8.805,8.651a.373.373,0,0,0-.312-.278.55.55,0,0,0-.081-.008c-.012,0-.03,0-.035-.016h-.584c-.008.014-.022.006-.032.006-.27,0-.54,0-.809,0a.517.517,0,0,0-.278.071.354.354,0,0,0-.156.217c0,.018,0,.039-.012.053v1.531c.02,0,.014.022.016.035a.423.423,0,0,0,.093.223.374.374,0,0,0,.282.12c.493,0,.988,0,1.481,0a.572.572,0,0,0,.185-.026.353.353,0,0,0,.258-.349v-1.458A.416.416,0,0,0,240.3,244.153Z" transform="translate(1.01 -38.09)"/>
  </g>
</svg>
