<svg xmlns="http://www.w3.org/2000/svg" width="18.004" height="18" viewBox="0 0 18.004 18">
  <defs>
    <style>
      .cls-1 {
        fill: #8187a5;
      }
    </style>
  </defs>
  <g id="组_27811" data-name="组 27811" transform="translate(-20 -86)">
    <path id="联合_3300" data-name="联合 3300" class="cls-1" d="M-1457-6082a9.008,9.008,0,0,1,9-9,8.976,8.976,0,0,1,7.062,3.424l.687-.517a.5.5,0,0,1,.368-.1.5.5,0,0,1,.428.434l.457,3.591a.5.5,0,0,1-.144.417.5.5,0,0,1-.419.141.494.494,0,0,1-.131-.037l-3.326-1.429a.493.493,0,0,1-.3-.4.5.5,0,0,1,.2-.46l.984-.741A7.491,7.491,0,0,0-1448-6089.5a7.508,7.508,0,0,0-7.5,7.5,7.508,7.508,0,0,0,7.5,7.5,7.51,7.51,0,0,0,6.185-3.259l.009.008a.748.748,0,0,1,.558-.249.751.751,0,0,1,.75.75.755.755,0,0,1-.211.523A9.018,9.018,0,0,1-1448-6073,9.008,9.008,0,0,1-1457-6082Z" transform="translate(1477 6176.999)"/>
  </g>
</svg>
