<svg xmlns="http://www.w3.org/2000/svg" width="40" height="40" viewBox="0 0 40 40">
  <g id="组_32566" data-name="组 32566" transform="translate(-10153.565 9584.435)">
    <circle id="椭圆_10519" data-name="椭圆 10519" cx="20" cy="20" r="20" transform="translate(10153.565 -9584.435)" fill="#ffad03"/>
    <path id="联合_3861" data-name="联合 3861" d="M14.585,31.984H12.836V16.892L9.891,27.7,8.2,27.247l2.938-10.788L7.607,22.545l-.756-.436-.758-.437,3.5-6.034L4.645,20.573l-.634-.632-.6-.6L8.6,14.167l-6.4,3.59-.858-1.519L7.2,12.949.7,14.7.47,13.832l-.222-.82,6.87-1.847H0V9.422H6.875L.217,7.706.655,6.018,7.163,7.7l-5.9-3.228.427-.775.415-.753L8.755,6.578,3.393,1.233,4.006.622,4.63,0l5.615,5.6A6.107,6.107,0,0,0,8.36,7.717a6.055,6.055,0,0,0,5.361,8.89,6.114,6.114,0,0,0,1.492-.184A6.042,6.042,0,0,0,16.57,15.9,6.118,6.118,0,0,0,18.7,14.022l5.336,5.319L22.8,20.573l-4.935-4.919,3.49,6.01-.763.44-.751.433L16.29,16.427l2.946,10.818-1.688.457L14.585,16.825V31.984ZM18.7,14.015a6.031,6.031,0,0,0,.38-6.3A6.108,6.108,0,0,0,17.2,5.6L22.812,0l1.237,1.233-5.2,5.178,6.4-3.592.858,1.52-5.888,3.3L26.744,5.89,27.2,7.574,20.322,9.422h7.12v1.744H20.626l6.6,1.7-.438,1.688-6.545-1.687,5.919,3.241-.842,1.528h0Zm-3.127.7L11.846,9.87v4.846H10.433V9.842h4.574a1.134,1.134,0,1,0,0-2.269H10.433V6.166h4.574a2.542,2.542,0,1,1,0,5.084h-.274l2.8,3.466Z" transform="translate(10159.775 -9579.035)" fill="#fff"/>
  </g>
</svg>
