<svg xmlns="http://www.w3.org/2000/svg" width="44" height="44" viewBox="0 0 44 44">
  <defs>
    <style>
      .cls-1 {
        fill: #1d203c;
      }

      .cls-2 {
        fill: #fff;
      }
    </style>
  </defs>
  <g id="组_27800" data-name="组 27800" transform="translate(-236 -150)">
    <rect id="矩形_27744" data-name="矩形 27744" class="cls-1" width="44" height="44" rx="14" transform="translate(236 150)"/>
    <g id="组_27783" data-name="组 27783" transform="translate(-13 137)">
      <path id="路径_95336" data-name="路径 95336" class="cls-2" d="M0,19.727v-8.1C0,3.9,4.8,0,10.55,0V1.632c-5.164,0-9.051,2.969-9.051,10,0,.947,0,4.024,0,4.024H4.233s.226-.049.293.11-.083.344-.083.344L.722,20.168s-.267.3-.515.177S0,19.727,0,19.727Z" transform="translate(282.001 24) rotate(90)"/>
      <path id="路径_95337" data-name="路径 95337" class="cls-2" d="M0,19.727v-8.1C0,3.9,4.8,0,10.55,0V1.632c-5.164,0-9.051,2.969-9.051,10,0,.947,0,4.024,0,4.024H4.233s.226-.049.293.11-.083.344-.083.344L.722,20.168s-.267.3-.515.177S0,19.727,0,19.727Z" transform="translate(260.001 46.002) rotate(-90)"/>
    </g>
  </g>
</svg>
