<svg xmlns="http://www.w3.org/2000/svg" xmlns:xlink="http://www.w3.org/1999/xlink" width="18" height="18" viewBox="0 0 18 18">
  <defs>
    <style>
      .cls-1 {
        fill: #2bb54b;
        opacity: 0.3;
      }

      .cls-2 {
        clip-path: url(#clip-path);
      }

      .cls-3, .cls-4, .cls-7 {
        fill: none;
      }

      .cls-4 {
        stroke: #fff;
      }

      .cls-5, .cls-6 {
        stroke: none;
      }

      .cls-6 {
        fill: #fff;
      }
    </style>
    <clipPath id="clip-path">
      <rect id="矩形_27846" data-name="矩形 27846" class="cls-1" width="18" height="18" transform="translate(66 399)"/>
    </clipPath>
  </defs>
  <g id="蒙版组_2516" data-name="蒙版组 2516" class="cls-2" transform="translate(-66 -399)">
    <g id="组_27768" data-name="组 27768" transform="translate(0 14)">
      <g id="多边形_4" data-name="多边形 4" class="cls-3" transform="translate(66 386)">
        <path class="cls-5" d="M12.33,0a2,2,0,0,1,1.743,1.019l3.375,6a2,2,0,0,1,0,1.961l-3.375,6A2,2,0,0,1,12.33,16H5.67a2,2,0,0,1-1.743-1.019l-3.375-6a2,2,0,0,1,0-1.961l3.375-6A2,2,0,0,1,5.67,0Z"/>
        <path class="cls-6" d="M 5.669698715209961 1 C 5.30894947052002 1 4.974979400634766 1.195320129394531 4.798118591308594 1.509739875793457 L 1.423118591308594 7.509739875793457 C 1.253019332885742 7.812140464782715 1.253019332885742 8.187860488891602 1.423118591308594 8.490260124206543 L 4.798118591308594 14.49026012420654 C 4.974979400634766 14.80467987060547 5.30894947052002 15 5.669698715209961 15 L 12.33030891418457 15 C 12.69105911254883 15 13.0250186920166 14.80467987060547 13.20187950134277 14.49026012420654 L 16.57687950134277 8.490260124206543 C 16.74698829650879 8.187860488891602 16.74698829650879 7.812140464782715 16.57687950134277 7.509739875793457 L 13.20187950134277 1.509739875793457 C 13.0250186920166 1.195320129394531 12.69105911254883 1 12.33030891418457 1 L 5.669698715209961 1 M 5.669698715209961 0 L 12.33030891418457 0 C 13.05284881591797 0 13.71921920776367 0.3897199630737305 14.07345962524414 1.019479751586914 L 17.44845962524414 7.019479751586914 C 17.79091835021973 7.628299713134766 17.79091835021973 8.371700286865234 17.44845962524414 8.980520248413086 L 14.07345962524414 14.98052024841309 C 13.71921920776367 15.61028003692627 13.05284881591797 16 12.33030891418457 16 L 5.669698715209961 16 C 4.947149276733398 16 4.280778884887695 15.61028003692627 3.926539421081543 14.98052024841309 L 0.5515384674072266 8.980520248413086 C 0.2090797424316406 8.371689796447754 0.2090797424316406 7.628299713134766 0.5515384674072266 7.019479751586914 L 3.926548957824707 1.019479751586914 C 4.280778884887695 0.3897199630737305 4.947149276733398 0 5.669698715209961 0 Z"/>
      </g>
      <g id="椭圆_9321" data-name="椭圆 9321" class="cls-4" transform="translate(71 390)">
        <circle class="cls-5" cx="4" cy="4" r="4"/>
        <circle class="cls-7" cx="4" cy="4" r="3.5"/>
      </g>
    </g>
  </g>
</svg>
