<svg xmlns="http://www.w3.org/2000/svg" width="13.998" height="14" viewBox="0 0 13.998 14">
  <defs>
    <style>
      .cls-1 {
        fill: #0b23eb;
      }
    </style>
  </defs>
  <path id="联合_2445" data-name="联合 2445" class="cls-1" d="M2.13,12.123a7.147,7.147,0,0,1-.7-.742L0,12.8V8.616H4.225l-2.019,2a6.02,6.02,0,0,0,8.785.748,5.883,5.883,0,0,0,1.915-3.823H14a6.944,6.944,0,0,1-2.237,4.584,7.116,7.116,0,0,1-9.631,0ZM1.091,6.462H0A6.944,6.944,0,0,1,2.237,1.877a7.116,7.116,0,0,1,9.631,0,7.165,7.165,0,0,1,.7.742L14,1.2V5.384H9.773l2.02-2a6.13,6.13,0,0,0-.694-.748,6.023,6.023,0,0,0-8.092,0A5.883,5.883,0,0,0,1.092,6.461h0Z"/>
</svg>
