<svg xmlns="http://www.w3.org/2000/svg" width="26" height="26" viewBox="0 0 26 26">
  <defs>
    <style>
      .cls-1 {
        fill: #0318c7;
      }

      .cls-2 {
        fill: #fff;
      }
    </style>
  </defs>
  <g id="组_27842" data-name="组 27842" transform="translate(-1586 -1035)">
    <rect id="矩形_21841" data-name="矩形 21841" class="cls-1" width="26" height="26" rx="13" transform="translate(1586 1035)"/>
    <path id="路径_97183" data-name="路径 97183" class="cls-2" d="M2850.405-9117.35a8.447,8.447,0,0,0,9.125.159c4.434-2.637,4.165-8.215,4.165-8.215a5.26,5.26,0,0,0,.781-.689,7.676,7.676,0,0,0,.7-.929,4.677,4.677,0,0,1-.757.27,7.778,7.778,0,0,1-.92.158,3.231,3.231,0,0,0,.77-.716,4.024,4.024,0,0,0,.5-1.008,4.932,4.932,0,0,1-.894.48,5.952,5.952,0,0,1-1.028.278,2.887,2.887,0,0,0-3.324-.835c-2.359.963-1.852,3.7-1.852,3.7a8.854,8.854,0,0,1-3.479-1.019,9.508,9.508,0,0,1-2.8-2.454,3.57,3.57,0,0,0-.31,2.347,3.377,3.377,0,0,0,1.247,1.989,3.562,3.562,0,0,1-.715-.116,3.326,3.326,0,0,1-.649-.276,3.536,3.536,0,0,0,.683,2.056,3.569,3.569,0,0,0,1.751,1.188,3.635,3.635,0,0,1-.64.086,4.62,4.62,0,0,1-.692-.03,2.864,2.864,0,0,0,.952,1.5,3.457,3.457,0,0,0,1.843.745,7.712,7.712,0,0,1-2.17,1.161A6.141,6.141,0,0,1,2850.405-9117.35Z" transform="translate(-1258.523 10170.904)"/>
  </g>
</svg>
