<svg xmlns="http://www.w3.org/2000/svg" width="36" height="36" viewBox="0 0 36 36">
  <defs>
    <style>
      .cls-1 {
        fill: #b4bccc;
        stroke: rgba(0,0,0,0);
        fill-rule: evenodd;
      }

      .cls-2, .cls-4 {
        fill: none;
      }

      .cls-2 {
        stroke: #5b5f67;
      }

      .cls-3 {
        stroke: none;
      }
    </style>
  </defs>
  <g id="组_19364" data-name="组 19364" transform="translate(-220 -518)">
    <path id="路径_2" data-name="路径 2" class="cls-1" d="M43.977,17.31A10.913,10.913,0,0,0,54.988,6.3V5.775a8.524,8.524,0,0,0,1.888-1.992,8.705,8.705,0,0,1-2.2.629,4.08,4.08,0,0,0,1.678-2.1,9.618,9.618,0,0,1-2.412.944A3.745,3.745,0,0,0,51.108,2a3.94,3.94,0,0,0-3.88,3.88,2.044,2.044,0,0,0,.1.839,10.842,10.842,0,0,1-7.97-4.09,4.016,4.016,0,0,0-.524,1.992,4.166,4.166,0,0,0,1.678,3.251,3.535,3.535,0,0,1-1.783-.524h0a3.833,3.833,0,0,0,3.146,3.775,3.233,3.233,0,0,1-1.049.1,1.785,1.785,0,0,1-.734-.1,3.973,3.973,0,0,0,3.67,2.727,7.918,7.918,0,0,1-4.824,1.678,2.9,2.9,0,0,1-.944-.1,9.9,9.9,0,0,0,5.977,1.888" transform="translate(191.292 527.479)"/>
    <g id="椭圆_7305" data-name="椭圆 7305" class="cls-2" transform="translate(220 518)">
      <circle class="cls-3" cx="18" cy="18" r="18"/>
      <circle class="cls-4" cx="18" cy="18" r="17.5"/>
    </g>
  </g>
</svg>
