<svg xmlns="http://www.w3.org/2000/svg" xmlns:xlink="http://www.w3.org/1999/xlink" width="18" height="18" viewBox="0 0 18 18">
  <defs>
    <style>
      .cls-1 {
        fill: #ff5252;
      }

      .cls-2 {
        clip-path: url(#clip-path);
      }

      .cls-3, .cls-6 {
        fill: none;
      }

      .cls-3, .cls-4 {
        stroke: #fff;
      }

      .cls-4 {
        fill: #fff;
        stroke-linecap: round;
      }

      .cls-5 {
        stroke: none;
      }
    </style>
    <clipPath id="clip-path">
      <rect id="矩形_27850" data-name="矩形 27850" class="cls-1" width="18" height="18" transform="translate(164 123)"/>
    </clipPath>
  </defs>
  <g id="蒙版组_2519" data-name="蒙版组 2519" class="cls-2" transform="translate(-164 -123)">
    <g id="组_27771" data-name="组 27771" transform="translate(-105)">
      <g id="矩形_27775" data-name="矩形 27775" class="cls-3" transform="translate(270 124)">
        <path class="cls-5" d="M1,0H15a1,1,0,0,1,1,1V11a5,5,0,0,1-5,5H1a1,1,0,0,1-1-1V1A1,1,0,0,1,1,0Z"/>
        <path class="cls-6" d="M1,.5H15a.5.5,0,0,1,.5.5V11A4.5,4.5,0,0,1,11,15.5H1A.5.5,0,0,1,.5,15V1A.5.5,0,0,1,1,.5Z"/>
      </g>
      <g id="矩形_27776" data-name="矩形 27776" class="cls-4" transform="translate(274 128)">
        <rect class="cls-5" width="8" height="1" rx="0.5"/>
        <rect class="cls-6" x="0.5" y="0.5" width="7"/>
      </g>
      <g id="矩形_27777" data-name="矩形 27777" class="cls-4" transform="translate(274 131.5)">
        <rect class="cls-5" width="8" height="1" rx="0.5"/>
        <rect class="cls-6" x="0.5" y="0.5" width="7"/>
      </g>
      <g id="矩形_27778" data-name="矩形 27778" class="cls-4" transform="translate(274 135)">
        <rect class="cls-5" width="5" height="1" rx="0.5"/>
        <rect class="cls-6" x="0.5" y="0.5" width="4"/>
      </g>
    </g>
  </g>
</svg>
