<svg id="组_27613" data-name="组 27613" xmlns="http://www.w3.org/2000/svg" width="18" height="16" viewBox="0 0 18 16">
  <defs>
    <style>
      .cls-1 {
        fill: none;
      }

      .cls-2, .cls-4 {
        fill: #8187A5;
      }

      .cls-3, .cls-4 {
        stroke: none;
      }
    </style>
  </defs>
  <g id="多边形_1" data-name="多边形 1" class="cls-1">
    <path class="cls-3" d="M8.128,1.549a1,1,0,0,1,1.743,0l7.29,12.96A1,1,0,0,1,16.29,16H1.71a1,1,0,0,1-.872-1.49Z"/>
    <path class="cls-4" d="M 9.000006675720215 2.039732933044434 L 9.000008583068848 2.039728164672852 L 1.709848403930664 14.99999809265137 L 16.2901496887207 14.99999809265137 L 9.000008583068848 2.039737701416016 C 9.000008583068848 2.039736747741699 9.000006675720215 2.039734840393066 9.000006675720215 2.039732933044434 M 9 1.039730072021484 C 9.340211868286133 1.039730072021484 9.680423736572266 1.209643363952637 9.871579170227051 1.549468040466309 L 17.16172981262207 14.50973796844482 C 17.53668975830078 15.17633819580078 17.05497932434082 15.99999809265137 16.2901496887207 15.99999809265137 L 1.709848403930664 15.99999809265137 C 0.9450187683105469 15.99999809265137 0.4633083343505859 15.17633819580078 0.8382682800292969 14.50973796844482 L 8.128429412841797 1.549468040466309 C 8.319579124450684 1.209643363952637 8.659789085388184 1.039730072021484 9 1.039730072021484 Z"/>
  </g>
  <path id="路径_95953" data-name="路径 95953" class="cls-2" d="M2.176-8.568l.25,5.082h.849l.25-5.082Zm.669,5.622a.73.73,0,0,0-.539.21.675.675,0,0,0-.23.539.675.675,0,0,0,.23.539.737.737,0,0,0,.539.22.811.811,0,0,0,.559-.21.761.761,0,0,0,.22-.549.737.737,0,0,0-.22-.539A.794.794,0,0,0,2.845-2.946Z" transform="translate(6.156 15.068)"/>
</svg>
