<svg xmlns="http://www.w3.org/2000/svg" width="36" height="36" viewBox="0 0 36 36">
  <defs>
    <style>
      .cls-1, .cls-4 {
        fill: none;
      }

      .cls-1 {
        stroke: #5b5f67;
      }

      .cls-2 {
        fill: #b4bccc;
      }

      .cls-3 {
        stroke: none;
      }
    </style>
  </defs>
  <g id="组_19365" data-name="组 19365" transform="translate(-30 -518)">
    <g id="椭圆_7303" data-name="椭圆 7303" class="cls-1" transform="translate(30 518)">
      <circle class="cls-3" cx="18" cy="18" r="18"/>
      <circle class="cls-4" cx="18" cy="18" r="17.5"/>
    </g>
    <g id="组_19288" data-name="组 19288" transform="translate(39 529)">
      <path id="路径_22168" data-name="路径 22168" class="cls-2" d="M-505.041,205.459c-.469-.027-.936-.032-1.4-.087a9.817,9.817,0,0,1-1.138-.229.789.789,0,0,0-.621.071c-.472.277-.95.544-1.425.817-.112.064-.224.116-.344.03s-.11-.22-.074-.351q.148-.543.292-1.086a.475.475,0,0,0-.222-.634,5.635,5.635,0,0,1-1.653-1.864,4.778,4.778,0,0,1,.34-5.322,6.607,6.607,0,0,1,3.923-2.55,7.8,7.8,0,0,1,2.546-.215,7.214,7.214,0,0,1,4.7,2.049,5.225,5.225,0,0,1,1.453,2.567c.039.167-.006.2-.164.2a6.914,6.914,0,0,0-3.666.884,5.081,5.081,0,0,0-2.667,3.492,4.208,4.208,0,0,0,.109,2.045.85.85,0,0,1,.022.089A.521.521,0,0,1-505.041,205.459ZM-504,197.91a.892.892,0,0,0,.875.888.9.9,0,0,0,.892-.912.9.9,0,0,0-.9-.872A.9.9,0,0,0-504,197.91Zm-4.577.008a.906.906,0,0,0,.908.881.919.919,0,0,0,.873-.883.924.924,0,0,0-.912-.9A.919.919,0,0,0-508.578,197.918Z" transform="translate(512.272 -194.017)"/>
      <path id="路径_22169" data-name="路径 22169" class="cls-2" d="M-303.715,336.505a6.276,6.276,0,0,1,3.635,1.094,4.5,4.5,0,0,1,2,2.946,3.919,3.919,0,0,1-.8,3.216,9.465,9.465,0,0,1-1.051,1.055c-.2.185-.244.26-.173.529q.116.437.233.873c.031.115.075.253-.058.311a.4.4,0,0,1-.3-.028c-.353-.188-.7-.384-1.04-.6a.915.915,0,0,0-.755-.1,6.377,6.377,0,0,1-5.645-1.095,4.2,4.2,0,0,1-1.774-3.6,4.247,4.247,0,0,1,1.594-3.15,6.042,6.042,0,0,1,3.417-1.422c.122-.013.245-.026.367-.032S-303.832,336.505-303.715,336.505Zm-1.166,3.233a.747.747,0,0,0-.755-.744.748.748,0,0,0-.743.736.75.75,0,0,0,.772.764A.752.752,0,0,0-304.881,339.738Zm3.774.01a.742.742,0,0,0-.742-.754.753.753,0,0,0-.757.764.757.757,0,0,0,.765.736A.747.747,0,0,0-301.107,339.749Z" transform="translate(316.944 -331.237)"/>
    </g>
  </g>
</svg>
