<svg xmlns="http://www.w3.org/2000/svg" width="26" height="26" viewBox="0 0 26 26">
  <defs>
    <style>
      .cls-1 {
        fill: #0318c7;
      }

      .cls-2 {
        fill: #fff;
      }
    </style>
  </defs>
  <g id="组_27843" data-name="组 27843" transform="translate(-1285.019 -1223)">
    <rect id="矩形_21839" data-name="矩形 21839" class="cls-1" width="26" height="26" rx="13" transform="translate(1285.019 1223)"/>
    <g id="微信" transform="translate(1290.158 1229.724)">
      <path id="路径_93211" data-name="路径 93211" class="cls-2" d="M558.563,386.747c0,2,1.968,3.614,4.382,3.614a5.31,5.31,0,0,0,1.66-.265c.14.07,1.144.935,1.368.781.153-.126-.363-1.06-.4-1.228a3.43,3.43,0,0,0,1.772-2.888c0-2-1.967-3.614-4.381-3.614S558.563,384.751,558.563,386.747Zm5.3-1.284a.628.628,0,1,1,.628.628A.617.617,0,0,1,563.866,385.463Zm-3.084,0a.628.628,0,1,1,.628.628A.608.608,0,0,1,560.782,385.463Z" transform="translate(-551.651 -378.344)"/>
      <path id="路径_93212" data-name="路径 93212" class="cls-2" d="M6.363,8.2c0-2.177,2.149-3.935,4.786-3.935a3.788,3.788,0,0,1,.4.014C11.261,1.87,8.791,0,5.791,0,2.6,0,0,2.135,0,4.772A4.558,4.558,0,0,0,2.33,8.6c-.056.209-.726,1.451-.53,1.619.293.2,1.619-.949,1.8-1.033a6.559,6.559,0,0,0,2.191.363,5.627,5.627,0,0,0,.837-.056A3.112,3.112,0,0,1,6.363,8.2ZM7.814,2.247a.84.84,0,0,1,.837.837.822.822,0,0,1-.837.837.837.837,0,1,1,0-1.674ZM3.754,3.921a.837.837,0,1,1,.837-.837A.84.84,0,0,1,3.754,3.921Z" transform="translate(0)"/>
    </g>
  </g>
</svg>
