<svg xmlns="http://www.w3.org/2000/svg" width="40" height="40" viewBox="0 0 40 40">
  <defs>
    <style>
      .cls-1 {
        fill: #e62147;
      }
    </style>
  </defs>
  <path id="路径_102420" data-name="路径 102420" class="cls-1" d="M806.43,815.283h0a29.993,29.993,0,1,0,4.57,15.9A30,30,0,0,0,806.43,815.283Zm-48.66,15.9a23.219,23.219,0,0,1,39.374-16.7H781a16.7,16.7,0,1,0,9.924,30.108v7.593a23.225,23.225,0,0,1-33.156-21.006Zm39.922,16.147V827.8H777.8v6.768h12.526a9.924,9.924,0,1,1-9.33-13.31h21a23.2,23.2,0,0,1-4.313,26.073Z" transform="translate(-751 -801.19)"/>
</svg>
