<svg xmlns="http://www.w3.org/2000/svg" width="40" height="40" viewBox="0 0 40 40">
  <g id="组_28049" data-name="组 28049" transform="translate(7123 7769)">
    <path id="路径_102419" data-name="路径 102419" d="M787.953,810.585h0a20,20,0,1,0,3.047,10.6A20,20,0,0,0,787.953,810.585Zm-32.44,10.6a15.479,15.479,0,0,1,26.249-11.13H771a11.131,11.131,0,1,0,6.616,20.072v5.062a15.483,15.483,0,0,1-22.1-14Zm26.615,10.765V818.929h-13.26v4.512h8.351a6.616,6.616,0,1,1-6.22-8.873h14a15.468,15.468,0,0,1-2.875,17.382Z" transform="translate(-7874 -8570.19)" fill="#e62147"/>
  </g>
</svg>
