<svg xmlns="http://www.w3.org/2000/svg" width="30" height="30" viewBox="0 0 30 30">
  <defs>
    <style>
      .cls-1 {
        fill: #0685fd;
      }

      .cls-2 {
        fill: #fff;
      }
    </style>
  </defs>
  <g id="组_26142" data-name="组 26142" transform="translate(-20 -359)">
    <g id="组_25709" data-name="组 25709">
      <g id="组_25568" data-name="组 25568" transform="translate(20 359)">
        <circle id="椭圆_6723" data-name="椭圆 6723" class="cls-1" cx="15" cy="15" r="15" transform="translate(0)"/>
      </g>
      <g id="组_25569" data-name="组 25569" transform="translate(25.097 364.097)">
        <path id="路径_21541" data-name="路径 21541" class="cls-2" d="M185.149,281.534a18.852,18.852,0,0,1-1.2,1.495c-.175.2-.357.389-.543.576a1.274,1.274,0,0,0-.483.029,5.731,5.731,0,0,1-.72-.872,6.144,6.144,0,0,1-.494-.863.269.269,0,0,1,.011-.243,1.275,1.275,0,1,0-2.391-.62,1.257,1.257,0,0,0,.111.517.263.263,0,0,1,0,.216c-.078.163-.157.327-.242.486a14.65,14.65,0,0,1-.935,1.537,16.958,16.958,0,0,1-1.095,1.429c-.146.17-.3.338-.454.5-.047,0-.093-.009-.14-.009a.335.335,0,0,0-.047,0c-.155-.185-.3-.373-.448-.565q-.555-.739-1.033-1.523c-.16-.261-.317-.523-.461-.793s-.281-.543-.406-.826c-.073-.168-.144-.338-.208-.512a.271.271,0,0,1,.018-.223,1.259,1.259,0,0,0,.166-.667,1.278,1.278,0,0,0-1.866-1.089l-.013.007-.013.007-.047.027s0,0,0,0l-.018.011a1.27,1.27,0,0,0,.68,2.347h0a.268.268,0,0,1,.2.093c.12.143.233.287.344.435.184.247.357.5.519.759s.315.526.463.793c.295.537.57,1.084.813,1.649.078.183.155.367.226.552a.257.257,0,0,1-.011.21,1.245,1.245,0,0,0-.135.654,1.278,1.278,0,1,0,2.449-.581.267.267,0,0,1,0-.214c.078-.166.162-.331.246-.495a16.936,16.936,0,0,1,.922-1.546A15.055,15.055,0,0,1,180,282.79c.144-.168.295-.333.45-.495a1.239,1.239,0,0,0,.468-.026,6.222,6.222,0,0,1,.734.872,5.744,5.744,0,0,1,.5.854.267.267,0,0,1-.011.245,1.256,1.256,0,0,0-.164.66,1.277,1.277,0,1,0,2.462-.508.256.256,0,0,1,.009-.21c.1-.2.2-.4.31-.592.31-.561.652-1.1,1.013-1.625a15.709,15.709,0,0,1,1.179-1.508c.144-.163.295-.322.45-.479a.264.264,0,0,1,.2-.077c.027,0,.053,0,.08,0a1.271,1.271,0,1,0-1.177-.777.263.263,0,0,1,0,.216c-.1.2-.2.391-.3.581A17.6,17.6,0,0,1,185.149,281.534Z" transform="translate(-169.257 -272.612)"/>
        <path id="路径_21542" data-name="路径 21542" class="cls-2" d="M85.3,70.965l0-.411a.371.371,0,0,0-.742-.02l0,.02-.024.378c0,.031,0,.064-.007.095l-.011.095-.022.187-.011.095c0,.031-.007.062-.013.095l-.031.187-.031.187c0,.031-.011.062-.018.092l-.02.092a8.485,8.485,0,0,1-.423,1.441,8.9,8.9,0,0,1-.658,1.344l-.1.158c-.033.053-.064.108-.1.158l-.21.308-.222.3c-.018.024-.038.048-.058.073l-.06.073-.12.143A9.1,9.1,0,0,1,81.362,77.1a8.6,8.6,0,0,1-1.212.858,8.85,8.85,0,0,1-1.336.64,8.379,8.379,0,0,1-1.42.411,9.379,9.379,0,0,1-1.466.167l-.37,0-.37-.013c-.031,0-.062,0-.093,0L75,79.155l-.184-.015-.091-.009c-.031,0-.062,0-.091-.009l-.182-.024-.182-.024c-.031,0-.06-.009-.091-.015l-.091-.018-.182-.033-.091-.018-.089-.022c-.12-.029-.239-.055-.357-.086l-.352-.1a9.335,9.335,0,0,1-1.358-.555c-.109-.057-.219-.11-.323-.174l-.159-.092c-.053-.031-.106-.059-.157-.095l-.308-.2-.3-.213a8.559,8.559,0,0,1-3.469-6.183l-.016-.183L66.929,71l0-.092-.011-.365.009-.365c0-.062,0-.121.009-.183l.013-.183a8.575,8.575,0,0,1,1.431-4.1,8.975,8.975,0,0,1,2.018-2.13l.3-.218.31-.2.038-.026.04-.024.08-.046.159-.095.08-.046.082-.044.164-.086a8.97,8.97,0,0,1,1.369-.57l.357-.106.361-.088c.06-.015.122-.026.182-.04l.184-.035c.122-.026.246-.042.368-.059l.184-.026.186-.018.186-.018.093-.009.093,0,.374-.015.374,0a9.389,9.389,0,0,1,1.489.161c.062.011.124.022.184.035l.184.044.184.044.182.051.182.051c.06.018.12.04.179.057l.179.059.044.015.044.018.089.033a8.971,8.971,0,0,1,1.364.645,9.078,9.078,0,0,1,1.245.863l0,0a.394.394,0,0,0,.521-.59,9.42,9.42,0,0,0-1.3-1.019,9.871,9.871,0,0,0-1.469-.783l-.1-.042-.049-.02-.049-.02-.195-.075c-.064-.024-.131-.051-.195-.073l-.2-.066-.2-.066-.2-.057-.2-.057c-.066-.018-.135-.033-.2-.048a9.832,9.832,0,0,0-1.659-.246l-.421-.018-.421,0-.106,0-.1.007-.21.013c-.071,0-.14.007-.21.013l-.21.022c-.14.015-.279.029-.419.053l-.208.033c-.069.011-.14.022-.208.037l-.414.088-.408.11a9.983,9.983,0,0,0-3.035,1.47,10.181,10.181,0,0,0-1.285,1.1c-.1.1-.2.2-.292.308l-.142.158-.071.079c-.024.026-.044.055-.066.081-.089.11-.179.22-.266.33l-.25.343a9.867,9.867,0,0,0-.842,1.47,9.66,9.66,0,0,0-.583,1.593,10.185,10.185,0,0,0-.295,1.67l-.018.211c-.007.07-.013.141-.013.211l-.011.425c0,.141.007.282.009.425l0,.106.007.106.016.211a10.24,10.24,0,0,0,.277,1.675,9.778,9.778,0,0,0,.569,1.6,10.072,10.072,0,0,0,.831,1.485,10.2,10.2,0,0,0,2.359,2.44,9.914,9.914,0,0,0,1.458.885,10.02,10.02,0,0,0,1.586.627l.412.112c.137.033.277.064.416.095l.1.022.1.018.21.035.1.018a.882.882,0,0,0,.106.015l.213.026a10.111,10.111,0,0,0,3.385-.169,9.826,9.826,0,0,0,5.6-3.538l.126-.167.064-.084c.022-.029.042-.055.062-.084l.237-.345c.075-.119.146-.238.219-.356.038-.059.069-.121.1-.18l.1-.183a9.692,9.692,0,0,0,.653-1.529l.062-.2.031-.1c.011-.033.02-.066.029-.1l.1-.4c.029-.134.055-.271.084-.4l.02-.1.016-.1.031-.2.016-.1c0-.033.011-.068.013-.1l.02-.2.02-.2c0-.035,0-.068.007-.1l0-.1.009-.2,0-.1C85.3,71.033,85.3,71,85.3,70.965Z" transform="translate(-65.5 -60.7)"/>
      </g>
    </g>
  </g>
</svg>
