<svg xmlns="http://www.w3.org/2000/svg" width="40" height="40" viewBox="0 0 40 40">
  <defs>
    <style>
      .cls-1 {
        fill: #2753e8;
      }

      .cls-2 {
        fill: #fff;
      }
    </style>
  </defs>
  <g id="组_27808" data-name="组 27808" transform="translate(-24 -308)">
    <g id="组_25568" data-name="组 25568" transform="translate(24 308)">
      <circle id="椭圆_6723" data-name="椭圆 6723" class="cls-1" cx="20" cy="20" r="20"/>
    </g>
    <g id="组_25569" data-name="组 25569" transform="translate(31 315)">
      <path id="路径_21541" data-name="路径 21541" class="cls-2" d="M189.14,282.764a24.408,24.408,0,0,1-1.552,1.935c-.227.254-.462.5-.7.746a1.65,1.65,0,0,0-.625.037,7.416,7.416,0,0,1-.932-1.129,7.951,7.951,0,0,1-.64-1.118.348.348,0,0,1,.014-.314,1.651,1.651,0,1,0-3.1-.8,1.627,1.627,0,0,0,.143.669.341.341,0,0,1,0,.28c-.1.211-.2.423-.313.629a18.969,18.969,0,0,1-1.211,1.989,21.968,21.968,0,0,1-1.417,1.849c-.189.22-.384.437-.588.652-.06-.006-.12-.011-.181-.011a.434.434,0,0,0-.06,0c-.2-.24-.393-.483-.579-.732q-.719-.956-1.337-1.972c-.207-.337-.41-.677-.6-1.026s-.364-.7-.525-1.069c-.095-.217-.186-.437-.27-.663a.351.351,0,0,1,.023-.289,1.631,1.631,0,0,0,.215-.863,1.654,1.654,0,0,0-2.416-1.409l-.017.009-.017.009-.06.034s0,0-.006,0l-.023.014a1.645,1.645,0,0,0,.881,3.038h0a.347.347,0,0,1,.264.12c.155.186.3.372.445.563.238.32.462.649.671.983s.407.68.6,1.026c.382.695.737,1.4,1.053,2.135.1.237.2.474.293.715a.332.332,0,0,1-.014.272,1.613,1.613,0,0,0-.175.846,1.654,1.654,0,1,0,3.17-.752.345.345,0,0,1,0-.277c.1-.214.209-.429.318-.64a21.926,21.926,0,0,1,1.193-2,19.494,19.494,0,0,1,1.4-1.861c.186-.217.382-.432.582-.64a1.6,1.6,0,0,0,.605-.034,8.058,8.058,0,0,1,.95,1.129,7.436,7.436,0,0,1,.646,1.106.345.345,0,0,1-.014.317,1.625,1.625,0,0,0-.212.855,1.653,1.653,0,1,0,3.187-.658.332.332,0,0,1,.011-.271c.129-.26.264-.514.4-.766.4-.726.843-1.426,1.311-2.1a20.336,20.336,0,0,1,1.526-1.952c.186-.211.382-.417.582-.62a.342.342,0,0,1,.261-.1c.034,0,.069,0,.1,0a1.645,1.645,0,1,0-1.523-1.006.341.341,0,0,1-.006.28c-.123.254-.255.506-.393.752A22.788,22.788,0,0,1,189.14,282.764Z" transform="translate(-168.567 -271.214)"/>
      <path id="路径_21542" data-name="路径 21542" class="cls-2" d="M91.136,73.989l-.006-.533a.481.481,0,0,0-.961-.026l0,.026-.032.49c0,.04,0,.083-.009.122l-.014.122-.029.242-.014.122c-.006.04-.009.08-.017.122l-.04.242-.04.242c-.006.04-.014.08-.023.12l-.026.12a10.985,10.985,0,0,1-.548,1.866,11.519,11.519,0,0,1-.852,1.741l-.126.205c-.043.068-.083.14-.129.205l-.272.4-.287.385c-.023.031-.049.063-.075.094l-.077.094-.155.185a11.784,11.784,0,0,1-1.368,1.356,11.133,11.133,0,0,1-1.569,1.111,11.457,11.457,0,0,1-1.729.829A10.848,10.848,0,0,1,80.9,84.4a12.144,12.144,0,0,1-1.9.216l-.479.006-.479-.017c-.04,0-.08,0-.12-.006l-.118-.011-.238-.02-.118-.011c-.04,0-.08-.006-.118-.011l-.235-.031-.235-.031c-.04-.006-.077-.011-.118-.02l-.118-.023-.235-.043-.118-.023-.115-.028c-.155-.037-.31-.071-.462-.111l-.456-.134a12.083,12.083,0,0,1-1.758-.718c-.14-.074-.284-.142-.419-.225l-.206-.12c-.069-.04-.138-.077-.2-.122l-.4-.256-.387-.276a11.08,11.08,0,0,1-4.491-8l-.02-.236-.009-.117,0-.12-.014-.473.011-.473c0-.08.006-.157.011-.236l.017-.236a11.1,11.1,0,0,1,1.852-5.31,11.619,11.619,0,0,1,2.612-2.757l.387-.282.4-.262.049-.034.052-.031.1-.06.206-.123.1-.06.106-.057.212-.111a11.612,11.612,0,0,1,1.772-.738l.462-.137.467-.114c.077-.02.158-.034.235-.051l.238-.046c.158-.034.318-.054.476-.077l.238-.034.241-.023.241-.023.12-.011.12-.006.485-.02.485,0a12.153,12.153,0,0,1,1.927.208c.08.014.161.028.238.046l.238.057.238.057.235.066.235.066c.077.023.155.051.232.074l.232.077.057.02.057.023.115.043a11.614,11.614,0,0,1,1.766.835,11.752,11.752,0,0,1,1.612,1.117l0,0a.51.51,0,0,0,.674-.763,12.2,12.2,0,0,0-1.689-1.319,12.778,12.778,0,0,0-1.9-1.014l-.123-.054-.063-.026-.063-.026-.252-.1c-.083-.031-.169-.066-.252-.094l-.258-.085-.258-.085-.261-.074-.261-.074c-.086-.023-.175-.043-.264-.063a12.728,12.728,0,0,0-2.148-.319l-.545-.023-.545,0-.138,0-.135.009-.272.017c-.092.006-.181.009-.272.017l-.272.028c-.181.02-.361.037-.542.068l-.27.043c-.089.014-.181.028-.27.048l-.536.114-.528.142a12.924,12.924,0,0,0-3.929,1.9,13.18,13.18,0,0,0-1.663,1.424c-.126.131-.258.259-.379.4l-.184.205-.092.1c-.032.034-.057.071-.086.105-.115.142-.232.285-.344.427l-.324.444a12.773,12.773,0,0,0-1.09,1.9,12.506,12.506,0,0,0-.754,2.062,13.186,13.186,0,0,0-.381,2.162l-.023.273c-.009.091-.017.182-.017.273l-.014.55c0,.182.009.365.011.55l0,.137.009.137.02.273a13.256,13.256,0,0,0,.358,2.168,12.658,12.658,0,0,0,.737,2.074,13.039,13.039,0,0,0,1.075,1.923,13.209,13.209,0,0,0,3.054,3.159,12.834,12.834,0,0,0,1.887,1.145,12.971,12.971,0,0,0,2.053.812l.533.145c.178.043.358.083.539.122l.135.028.135.023.272.046.135.023a1.141,1.141,0,0,0,.138.02l.275.034a13.089,13.089,0,0,0,4.382-.219A12.72,12.72,0,0,0,88.5,81.447l.163-.216.083-.108c.029-.037.054-.071.08-.108l.307-.447c.1-.154.189-.308.284-.461.049-.077.089-.157.135-.234l.129-.236a12.546,12.546,0,0,0,.846-1.98l.08-.256.04-.128c.014-.043.026-.085.037-.128l.135-.518c.037-.174.072-.35.109-.524l.026-.131.02-.131.04-.265.02-.131c.006-.043.014-.088.017-.134l.026-.265.026-.265c.006-.046.006-.088.009-.134l.006-.134.011-.265.006-.134C91.139,74.077,91.136,74.032,91.136,73.989Z" transform="translate(-65.5 -60.7)"/>
    </g>
  </g>
</svg>
